<svg version="1.1" xmlns="http://www.w3.org/2000/svg" xmlns:xlink="http://www.w3.org/1999/xlink" class="thumbnail-icon" viewBox="-0.00006103515625 38.344581604003906 200.0000762939453 123.3109359741211"><g data-paper-data="{&quot;fillRule&quot;:&quot;evenodd&quot;,&quot;isIcon&quot;:true,&quot;iconStyle&quot;:&quot;standalone&quot;,&quot;selectedEffects&quot;:{&quot;container&quot;:&quot;&quot;,&quot;transformation&quot;:&quot;&quot;,&quot;pattern&quot;:&quot;&quot;},&quot;bounds&quot;:{&quot;x&quot;:177.0915816380232,&quot;y&quot;:114.99999999999997,&quot;width&quot;:195.81683672395363,&quot;height&quot;:120.73169069031971},&quot;iconType&quot;:&quot;icon&quot;,&quot;rawIconId&quot;:&quot;67cc3b55-e8e6-4ec4-b6ef-e81f0b6b7a04&quot;,&quot;isSvgStockIcon&quot;:true,&quot;combineTerms&quot;:&quot;camping,mountain,sun&quot;,&quot;combineTermsExtended&quot;:{&quot;icon&quot;:[&quot;camping&quot;,&quot;mountain&quot;,&quot;sun&quot;]},&quot;isDetailed&quot;:false}"><path d="M121.88202,38.34458c-0.60721,3.07793 -3.20356,6.80496 -4.62737,9.75726c-1.59131,3.28732 -4.02016,8.68941 -6.82589,10.97168zM103.12129,42.99289l0.04188,-4.08297c0.1472,1.87377 0.15641,1.99165 0.1204,2.00778c-0.00251,0.00105 -0.00503,0.00168 -0.00775,0.0023c-0.0446,0.01047 -0.13359,0.03141 -0.15452,2.07289zM90.70486,40.06153v2.57541c0.00628,-1.19788 0.01068,-1.91041 0.01319,-2.3208c0.0023,-0.39092 0.00314,-0.50734 0.00209,-0.50734c-0.00042,0 -0.00105,0.02073 -0.00209,0.05088c-0.00251,0.0737 -0.00691,0.20185 -0.01319,0.20185zM78.73485,42.09652c-0.00628,0.00942 -0.01612,0.01654 -0.02764,0.02471c-0.08375,0.0603 -0.25126,0.1807 0.29314,1.73013c0.10553,0.30382 0.21839,0.62417 0.33606,0.95835c1.21212,3.44205 2.93702,8.34099 2.57437,11.60465l-3.99922,-15.66187c0.7588,1.12941 0.86287,1.28415 0.82329,1.34403zM63.77818,48.31122l-2.53354,-2.97324c2.09383,1.8007 1.92633,2.05196 2.53354,2.97324zM91.41676,45.73581l0.33501,5.86273c-0.51006,-1.13528 -0.43824,-2.95565 -0.37396,-4.58759c0.01738,-0.44494 0.03455,-0.87585 0.03895,-1.27514zM126.4047,55.53494l7.30748,-9.75726c0.4776,1.91062 -4.92825,7.35898 -7.01078,9.45784c-0.10825,0.1093 -0.20771,0.20938 -0.2967,0.29942zM102.43032,48.14371c-0.04104,1.9525 -0.6673,3.84449 -1.00713,5.75511zM65.39043,50.23754c-0.90035,-0.92129 -1.34005,-1.48662 -1.61225,-1.90539zM139.34458,60.79046l11.41139,-9.69445c-1.77976,2.09383 -7.22372,6.32337 -11.41139,9.69445zM56.36601,58.7385l-7.37029,-5.52772c1.67276,-0.41814 4.40396,2.44057 6.32337,4.4496c0.38715,0.40516 0.74122,0.77597 1.04692,1.07811zM71.93973,59.20501l-3.38761,-4.84262c1.37167,1.43407 2.26888,3.23916 3.38761,4.84262zM93.46872,73.31158l-1.02598,-15.85031c1.23452,3.27119 1.13842,7.78194 1.05278,11.80587v0.00063c-0.03057,1.43637 -0.05988,2.81034 -0.0268,4.04382zM120.79322,62.61209c0.56533,-1.48662 2.57541,-3.07793 3.89453,-4.39705zM83.29269,59.86917l1.37272,5.824c-0.1539,-0.64846 -0.35909,-1.28582 -0.56387,-1.92172c-0.41228,-1.27996 -0.82267,-2.55427 -0.80885,-3.90228zM101.04839,59.89011c0.4397,3.64327 -0.2722,10.82511 -1.71694,14.13337zM63.44317,64.34997c-1.48662,-0.56533 -3.07793,-2.57541 -4.39705,-3.89453zM134.92659,64.55936c0.92129,-0.90035 2.55448,-2.2404 4.43893,-3.7689zM35.65802,62.40271c3.07793,0.60721 10.34353,4.06204 13.29584,5.48584c3.26638,1.59131 8.68941,4.02016 10.97168,6.82589zM108.94214,62.46553l-3.16169,5.12989c1.06785,-1.73788 1.73788,-3.70608 3.16169,-5.12989zM84.65368,74.84008l-8.77316,-11.22294c2.88949,2.28228 7.45404,7.87281 8.77316,11.22294zM128.70791,81.07969c3.36228,0.35197 8.42202,-1.44977 11.8735,-2.67885c0.2454,-0.08752 0.48263,-0.1719 0.71044,-0.25252c3.09887,-1.08879 26.82199,-9.17099 29.43928,-10.92981zM106.63893,79.1743l10.4901,-11.93485c-1.94726,4.33423 -7.2656,8.5219 -10.4901,11.93485zM130.78081,67.72105c-1.43407,1.37167 -3.23916,2.26888 -4.84262,3.38782zM80.02632,78.50428l-11.95578,-10.4901c4.33423,1.94726 8.5219,7.2656 11.95578,10.4901zM86.05655,68.49576l1.71694,5.86273c-1.23536,-1.17255 -1.696,-4.02016 -1.71694,-5.86273zM101.88593,75.88699c-0.04188,-1.71694 1.63319,-4.0411 2.93137,-5.36021zM110.30313,83.80167l11.22294,-8.77316c-2.28228,2.88949 -7.87281,7.45404 -11.22294,8.77316zM63.31754,76.20107l5.12989,3.16169c-1.73788,-1.06785 -3.72702,-1.73788 -5.12989,-3.16169zM102.72346,99.94512c-0.02094,0.02094 -0.06281,0.06281 -0.08375,0.10469c-0.02094,0.02094 -0.06281,0.06281 -0.06281,0.08375c-0.48158,0.58627 -1.00504,1.13067 -1.59131,1.61225c-0.35595,0.29314 -0.7119,0.52346 -1.06785,0.73284c-1.86351,1.21442 -4.08297,1.92633 -6.46994,1.92633c-1.02598,0 -2.03102,-0.14657 -2.99418,-0.39783c-3.68515,-0.2722 -7.20278,-2.15665 -9.65257,-5.50678c-3.03606,-4.14579 -2.07289,-8.91973 0.81659,-12.50018c3.03606,-6.26056 10.92981,-9.98758 17.60912,-7.13997c6.46994,2.76386 7.91469,11.45326 5.33927,17.83944c-0.4397,1.19348 -1.06785,2.28228 -1.84257,3.24544zM37.16558,81.47752l-17.75569,-1.44474c2.28165,-0.17295 8.52986,0.48179 14.24518,1.08084c1.20814,0.12647 2.39241,0.25063 3.51052,0.36391zM71.37879,80.32591l5.36021,2.93137c-1.71694,0.04188 -4.06204,-1.63319 -5.36021,-2.93137zM178.52018,132.96485c6.07211,3.93641 13.60991,6.67933 20.77081,7.76812c1.13067,0.16751 0.79566,1.86351 -0.20938,1.86351c-6.78402,0.23032 -13.44241,-2.07289 -19.59826,-4.79488c-7.01434,-3.09887 -9.29662,-7.03528 -13.50522,-12.96082c-5.10895,-7.18185 -13.88211,-9.63163 -19.15856,-16.81347c-2.61729,-3.58045 -5.15083,-7.37029 -7.24466,-11.26482c-0.98724,-1.82771 -1.84697,-3.99524 -2.88237,-6.04259l-1.49793,0.08564c0.19598,0.78686 0.42463,1.5731 0.65328,2.35556c0.23032,-0.50252 0.4397,-1.02598 0.62815,-1.54944c0.06281,-0.20938 0.37689,-0.12563 0.31407,0.08375c-0.18844,0.69096 -0.4397,1.44474 -0.75378,2.15665c0.12563,0.39783 0.23032,0.77472 0.33501,1.17255c0.20938,-0.37689 0.37689,-0.79566 0.4397,-1.23536c0.02094,-0.18844 0.31407,-0.14657 0.31407,0.04188c-0.02094,0.69096 -0.25126,1.29818 -0.58627,1.88445c0.08375,0.35595 0.16751,0.69096 0.23032,1.04692c0.18844,-0.33501 0.37689,-0.67003 0.52346,-1.00504c0.10469,-0.18844 0.37689,-0.02094 0.29314,0.16751c-0.20938,0.50252 -0.41877,1.06785 -0.67003,1.61225c0.06281,0.50252 0.12563,1.00504 0.14657,1.50756c0.25126,-0.37689 0.46064,-0.79566 0.5444,-1.21442c0.04188,-0.18844 0.33501,-0.14657 0.33501,0.04188c0,0.79566 -0.39783,1.57037 -0.87941,2.2404c-0.04188,0.46064 -0.10469,0.90035 -0.18844,1.36099c0.52346,-0.56533 1.02598,-1.15161 1.36099,-1.84257c0.08375,-0.18844 0.39783,-0.04188 0.33501,0.14657c-0.4397,1.27724 -1.38193,2.30322 -2.21946,3.35013c0,0.02094 0,0.06281 -0.02094,0.08375c-0.29314,0.62815 -0.87941,1.27724 -1.54944,1.92633c-0.50252,0.62815 -1.06785,1.21442 -1.71694,1.65413c-0.58627,0.60721 -1.04692,1.17255 -1.15161,1.71694c-0.18174,0.90893 -0.16227,0.89993 -0.03622,0.84172c0.07705,-0.0356 0.1941,-0.08962 0.32936,0.03769c0.7119,-0.69096 1.44474,-1.38193 2.11477,-2.13571c1.31911,-1.48662 2.57541,-3.01512 3.95734,-4.43893c0.18844,-0.18844 0.5444,0.06281 0.37689,0.29314c-1.19348,1.61225 -2.38697,3.24544 -3.68515,4.79488c-0.69096,0.83753 -1.42381,1.8007 -2.26134,2.61729c0.14657,0.31407 0.33501,0.62815 0.50252,0.94222l0.18844,-0.25126c1.21442,-1.48662 2.40791,-3.03606 3.66421,-4.50174c0.18844,-0.23032 0.56533,0.06281 0.39783,0.29314c-1.23536,1.71694 -2.40791,3.45482 -3.66421,5.15083c-0.04188,0.06281 -0.08375,0.14657 -0.14657,0.23032c0,0.02094 0.02094,0.02094 0.02094,0.04188c0.08375,0.25126 0.12563,0.48158 0.18844,0.73284c0.83753,-0.96316 1.71694,-1.86351 2.61729,-2.74292c0.25126,-0.23032 0.60721,0.12563 0.37689,0.37689c-0.85847,0.9841 -1.696,1.98914 -2.49166,3.03606c-0.08375,0.10469 -0.16751,0.23032 -0.25126,0.35595c0.08375,0.5444 0.14657,1.10973 0.16751,1.65413c0.85847,-1.04692 1.8007,-2.05196 2.80574,-2.97324c0.29314,-0.2722 0.73284,0.16751 0.4397,0.4397c-1.04692,1.00504 -1.9682,2.09383 -2.82667,3.24544c-0.14657,0.20938 -0.2722,0.41877 -0.41877,0.64909c-0.02094,0.83753 -0.12563,1.696 -0.2722,2.53354c0.46064,-0.50252 0.92129,-0.9841 1.34005,-1.50756c1.00504,-1.21442 1.98914,-2.44978 3.11981,-3.55952c0.33501,-0.31407 0.85847,0.18844 0.52346,0.52346c-1.17255,1.19348 -2.15665,2.5126 -3.18263,3.81078c-0.64909,0.81659 -1.34005,1.71694 -2.13571,2.44978c-0.08375,0.39783 -0.18844,0.79566 -0.29314,1.19348c0.2722,-0.2722 0.5444,-0.56533 0.81659,-0.85847c1.38193,-1.50756 2.82667,-2.99418 4.45986,-4.22954c0.18844,-0.14657 0.39783,0.14657 0.25126,0.31407c-1.40287,1.59131 -2.86855,3.16169 -4.27142,4.77394c-0.62815,0.7119 -1.21442,1.46568 -1.84257,2.19852c-0.18844,0.75378 -0.39783,1.48662 -0.58627,2.21946c1.8007,-1.90539 3.51764,-3.87359 5.44396,-5.65335c0.2722,-0.25126 0.67003,0.14657 0.41877,0.41877c-1.65413,1.77976 -3.2245,3.66421 -4.79488,5.50678c-0.46064,0.5444 -0.9841,1.27724 -1.59131,1.90539c-0.10469,0.50252 -0.18844,1.02598 -0.2722,1.5285c1.5285,-1.44474 2.91043,-3.01512 4.14579,-4.73206c0.14657,-0.20938 0.48158,-0.02094 0.33501,0.18844c-1.36099,2.03102 -2.84761,4.10391 -4.62737,5.82085c-0.02094,0.12563 -0.02094,0.25126 -0.02094,0.37689c0.77472,-0.90035 1.54944,-1.8007 2.32415,-2.72198c0.18844,-0.20938 0.50252,0.04188 0.37689,0.2722c-0.81659,1.31911 -1.73788,2.70104 -2.74292,3.99922c0,0.35595 0.02094,0.7119 0.06281,1.06785c0.9841,-1.21442 2.01008,-2.38697 3.16169,-3.43389c0.33501,-0.31407 0.83753,0.16751 0.50252,0.48158c-1.21442,1.15161 -2.28228,2.42885 -3.28732,3.7689c-0.06281,0.08375 -0.12563,0.18844 -0.18844,0.2722c0.04188,0.23032 0.08375,0.4397 0.12563,0.67003c0.12563,0.5444 0.2722,1.08879 0.4397,1.63319c0.5444,-0.58627 1.06785,-1.21442 1.57037,-1.84257c1.04692,-1.29818 2.21946,-2.65917 2.97324,-4.16673c0.20938,-0.4397 0.83753,-0.06281 0.64909,0.37689c-0.83753,1.84257 -2.26134,3.55952 -3.4967,5.15083c-0.10469,0.14657 -0.69096,0.96316 -1.31911,1.59131c0.12563,0.35595 0.25126,0.69096 0.37689,1.02598c0.08375,-0.12563 0.16751,-0.20938 0.23032,-0.29314c1.84257,-2.32415 3.91547,-4.45986 5.61147,-6.90965c0.25126,-0.35595 0.81659,-0.04188 0.58627,0.33501c-1.19348,1.9682 -2.65917,3.74796 -4.08297,5.54866c-0.58627,0.75378 -1.19348,1.50756 -1.73788,2.28228c-0.04188,0.06281 -0.10469,0.14657 -0.14657,0.23032c0.16751,0.41877 0.31407,0.81659 0.48158,1.23536c0.23032,-0.23032 0.4397,-0.48158 0.62815,-0.7119c1.23536,-1.54944 2.28228,-3.18263 3.66421,-4.58549c0.23032,-0.23032 0.5444,0.10469 0.35595,0.33501c-1.13067,1.44474 -2.07289,3.03606 -3.14075,4.54362c-0.35595,0.50252 -0.73284,0.9841 -1.08879,1.48662c0.10469,0.29314 0.20938,0.56533 0.29314,0.83753c1.15161,-1.77976 3.07793,-3.78984 3.47576,-4.25048c0.18844,-0.20938 0.52346,0.04188 0.37689,0.2722c-0.75378,1.23536 -1.61225,2.38697 -2.38697,3.58045c-0.35595,0.56533 -0.75378,1.17255 -1.02598,1.8007c0.12563,0.4397 0.23032,0.87941 0.33501,1.34005c0.56533,-1.00504 1.15161,-1.98914 1.84257,-2.91043c0.37689,-0.52346 1.2563,-0.06281 0.87941,0.50252c-0.75378,1.13067 -1.34005,2.32415 -1.98914,3.4967c-0.14657,0.25126 -0.29314,0.56533 -0.4397,0.85847c0.02094,0.23032 0.04188,0.4397 0.06281,0.67003c0.73284,-0.94222 1.5285,-1.82163 2.38697,-2.65917c0.18844,-0.16751 0.5444,0.06281 0.37689,0.29314c-0.96316,1.34005 -1.88445,2.72198 -2.72198,4.14579c0,0.7119 -0.02094,1.42381 -0.06281,2.15665c0.16751,-0.18844 0.31407,-0.35595 0.46064,-0.52346c0.62815,-0.73284 1.27724,-1.42381 1.84257,-2.19852c0.25126,-0.33501 0.83753,-0.04188 0.60721,0.35595c-0.48158,0.81659 -1.00504,1.59131 -1.57037,2.34509c-0.41877,0.56533 -0.85847,1.40287 -1.46568,1.8007c-0.10469,1.27724 -0.25126,2.55448 -0.37689,3.83171c-0.18844,1.90539 -2.36603,2.5126 -3.4967,0.9841c-3.26638,-4.39705 -5.84179,-9.21286 -8.9616,-13.69367c-3.58045,-5.15083 -7.76812,-8.14501 -12.87707,-11.57889c-2.82667,-1.90539 -4.45986,-3.95734 -5.15083,-7.39123c-0.58627,-2.84761 -1.50756,-5.65335 -2.26134,-8.33345c-0.16751,-0.60721 -0.4397,-0.94222 -0.5444,-1.50756c-0.73284,-0.23032 -1.40287,-0.56533 -2.01008,-1.00504c-0.67003,0.90035 -1.38193,1.71694 -2.11477,2.55448c0.04188,0.23032 0.04188,0.46064 0.08375,0.67003c0.02094,0.06281 0.02094,0.10469 0.04188,0.16751c0.7119,-0.73284 1.44474,-1.44474 2.17759,-2.15665c0.18844,-0.18844 0.48158,0.10469 0.29314,0.29314c-0.73284,0.73284 -1.46568,1.48662 -2.15665,2.26134c-0.06281,0.06281 -0.10469,0.14657 -0.16751,0.20938c0.08375,0.31407 0.18844,0.60721 0.31407,0.92129c0.81659,-0.73284 1.67507,-1.46568 2.30322,-2.30322c0.14657,-0.20938 0.48158,-0.02094 0.33501,0.18844c-0.58627,0.90035 -1.29818,1.71694 -2.07289,2.47072c-0.10469,0.10469 -0.18844,0.20938 -0.29314,0.31407c0.10469,0.25126 0.18844,0.48158 0.29314,0.7119c0.92129,-0.81659 1.82163,-1.61225 2.65917,-2.42885c0.20938,-0.20938 0.52346,0.10469 0.31407,0.31407c-0.90035,0.94222 -1.8007,1.86351 -2.68011,2.80574c0.10469,0.23032 0.18844,0.46064 0.2722,0.69096c0.39783,-0.37689 0.77472,-0.77472 1.15161,-1.19348c0.08375,-0.10469 0.2722,0.02094 0.18844,0.14657c-0.35595,0.5444 -0.75378,1.04692 -1.17255,1.5285l0.06281,0.18844c0.12563,0.41877 0,0.94222 -0.2722,1.31911l0.4397,-0.37689c0.16751,-0.14657 0.39783,0.06281 0.25126,0.23032c-0.90035,0.96316 -1.73788,2.01008 -2.53354,3.057c-0.58627,0.75378 -1.10973,1.65413 -1.75882,2.36603c0.29314,0.14657 0.58627,0.2722 0.87941,0.39783c0.35595,-0.46064 0.81659,-0.90035 1.10973,-1.23536c0.90035,-1.04692 1.8007,-2.09383 2.49166,-3.28732c0.12563,-0.20938 0.41877,-0.04188 0.31407,0.16751c-0.58627,1.19348 -1.34005,2.2404 -2.13571,3.28732c-0.2722,0.35595 -0.60721,0.94222 -0.9841,1.42381c0.25126,0.12563 0.52346,0.25126 0.77472,0.37689c0.29314,-0.31407 0.62815,-0.58627 0.85847,-0.87941c0.64909,-0.77472 1.63319,-1.82163 1.8007,-2.84761c0.02094,-0.16751 0.31407,-0.12563 0.29314,0.04188c-0.14657,1.13067 -0.85847,2.21946 -1.50756,3.11981c-0.14657,0.20938 -0.37689,0.58627 -0.67003,0.96316c0.33501,0.18844 0.67003,0.35595 1.00504,0.5444c0.14657,-0.18844 0.31407,-0.35595 0.41877,-0.50252c0.52346,-0.69096 1.06785,-1.38193 1.46568,-2.15665c0.12563,-0.23032 0.52346,-0.06281 0.41877,0.16751c-0.33501,0.79566 -0.75378,1.50756 -1.23536,2.21946c-0.12563,0.16751 -0.25126,0.41877 -0.39783,0.64909c0.4397,0.25126 0.90035,0.52346 1.34005,0.81659c0.5444,-0.75378 1.08879,-1.48662 1.21442,-2.42885c0.04188,-0.23032 0.39783,-0.25126 0.39783,0c-0.04188,0.9841 -0.50252,1.94726 -1.02598,2.82667c0.39783,0.2722 0.79566,0.56533 1.19348,0.85847c0,-0.02094 0.02094,-0.02094 0.02094,-0.04188c0.2722,-0.50252 0.5444,-1.00504 0.79566,-1.50756c0.08375,-0.16751 0.39783,-0.04188 0.33501,0.14657c-0.16751,0.50252 -0.35595,1.02598 -0.56533,1.5285c-0.04188,0.08375 -0.06281,0.18844 -0.10469,0.2722c1.31911,1.13067 -0.4397,2.84761 -1.8007,2.26134c-4.73206,-2.03102 -10.30166,-2.15665 -14.48932,-5.36021c-3.18263,-2.42885 -5.10895,-6.07211 -7.03528,-9.48506c-3.91547,-6.93059 -8.71034,-13.40053 -12.75144,-20.26829c-0.23032,2.34509 -1.36099,4.83675 -2.61729,6.80496c-0.06281,0.58627 -0.08375,1.17255 -0.10469,1.75882c0.33501,-0.77472 0.7119,-1.54944 1.10973,-2.28228c0.77472,-1.44474 1.88445,-2.84761 2.07289,-4.52268c0.04188,-0.23032 0.41877,-0.25126 0.39783,0c-0.08375,1.27724 -0.67003,2.40791 -1.2563,3.51764c-0.87941,1.65413 -1.57037,3.35013 -2.26134,5.06707c0.04188,0.52346 0.12563,1.02598 0.25126,1.5285c0.2722,-0.4397 0.52346,-0.87941 0.73284,-1.29818c0.75378,-1.59131 1.40287,-3.24544 1.84257,-4.96238c0.06281,-0.2722 0.4397,-0.16751 0.39783,0.10469c-0.2722,1.71694 -0.90035,3.39201 -1.57037,4.98332c-0.25126,0.62815 -0.56533,1.57037 -0.9841,2.38697c0.08375,0.18844 0.16751,0.37689 0.25126,0.5444c0.12563,-0.33501 0.2722,-0.64909 0.41877,-0.96316c0.60721,-1.38193 1.36099,-2.72198 2.34509,-3.89453c0.16751,-0.20938 0.46064,0.08375 0.29314,0.29314c-1.29818,1.696 -1.90539,3.55952 -2.49166,5.48584c0.25126,0.35595 0.5444,0.7119 0.87941,1.04692c0.96316,-1.77976 2.34509,-3.68515 2.68011,-5.65335c0.04188,-0.20938 0.39783,-0.16751 0.37689,0.04188c-0.08375,1.61225 -1.04692,3.26638 -1.73788,4.69019c-0.23032,0.48158 -0.48158,0.96316 -0.7119,1.46568c0.10469,0.08375 0.20938,0.18844 0.33501,0.29314c0.35595,0.29314 0.7119,0.58627 1.06785,0.85847c0.73284,-1.71694 1.50756,-3.41295 2.09383,-5.1927c0.06281,-0.23032 0.4397,-0.14657 0.37689,0.10469c-0.46064,1.90539 -1.15161,3.74796 -1.86351,5.59053c0.39783,0.33501 0.77472,0.64909 1.15161,0.9841c0.67003,-1.48662 1.42381,-2.9523 1.86351,-4.52268c0.08375,-0.29314 0.52346,-0.16751 0.46064,0.12563c-0.37689,1.71694 -1.02598,3.37107 -1.65413,5.0252c0.33501,0.33501 0.67003,0.69096 0.9841,1.06785c0.69096,-1.59131 1.29818,-3.18263 1.65413,-4.96238c0.04188,-0.23032 0.39783,-0.16751 0.37689,0.04188c-0.10469,1.57037 -0.52346,3.11981 -1.02598,4.60643c-0.12563,0.35595 -0.25126,0.75378 -0.39783,1.13067c0.20938,0.2722 0.39783,0.56533 0.58627,0.87941c0.64909,-1.48662 1.38193,-2.9523 1.86351,-4.50174c0.06281,-0.25126 0.41877,-0.14657 0.37689,0.10469c-0.31407,1.77976 -0.87941,3.72702 -1.63319,5.48584c0.16751,0.33501 0.33501,0.67003 0.48158,0.9841c0.67003,-1.59131 1.5285,-3.14075 2.03102,-4.73206c0.08375,-0.25126 0.4397,-0.14657 0.39783,0.10469c-0.35595,2.03102 -1.10973,3.99922 -1.82163,5.94648c0.14657,0.33501 0.2722,0.64909 0.41877,0.96316c0.06281,-0.12563 0.12563,-0.23032 0.16751,-0.35595c0.58627,-1.34005 1.13067,-2.68011 1.54944,-4.06204c0.10469,-0.35595 0.67003,-0.20938 0.58627,0.16751c-0.31407,1.36099 -0.75378,2.68011 -1.2563,3.97828c-0.18844,0.46064 -0.35595,0.92129 -0.52346,1.40287c0.18844,0.41877 0.37689,0.81659 0.58627,1.23536c0.02094,-0.06281 0.06281,-0.12563 0.08375,-0.18844c0.50252,-1.17255 1.06785,-2.30322 1.65413,-3.43389c0.20938,-0.37689 0.73284,-0.06281 0.56533,0.31407c-0.50252,1.13067 -0.96316,2.28228 -1.40287,3.43389c-0.10469,0.29314 -0.20938,0.60721 -0.31407,0.92129c0.35595,0.62815 0.75378,1.2563 1.23536,1.88445c0.58627,-0.87941 1.21442,-1.71694 1.40287,-2.76386c0.04188,-0.2722 0.46064,-0.18844 0.46064,0.06281c0.02094,0.90035 -0.31407,1.696 -0.73284,2.47072c-0.16751,0.33501 -0.35595,0.64909 -0.5444,0.9841c0.18844,0.20938 0.37689,0.4397 0.58627,0.64909c1.34005,1.44474 0.02094,3.4967 -1.82163,3.18263c-1.67507,-0.29314 -3.35013,-1.08879 -5.00426,-1.29818c-3.01114,-0.36872 -3.87799,0.36475 -5.81604,2.00443l-0.13045,0.11034c-0.67003,0.56533 -0.83753,1.44474 -1.94726,1.71694c-2.2806,0.57413 -5.21657,-2.53061 -7.40233,-4.84199c-0.76404,-0.80801 -1.43637,-1.51908 -1.95711,-1.94203c-2.34509,-1.92633 -3.53858,-3.74796 -5.36021,-5.98836c-2.26134,-2.7848 -3.51764,-2.63823 -5.44396,-1.54944c1.61225,0.64909 3.11981,1.54944 4.3133,2.72198c0.14657,0.16751 -0.08375,0.37689 -0.25126,0.25126c-1.44474,-1.10973 -3.18263,-1.82163 -4.92051,-2.44978c-0.39783,0.23032 -0.83753,0.50252 -1.29818,0.77472c-0.2722,0.16751 -0.58627,0.31407 -0.87941,0.48158c0.2722,0.06281 0.5444,0.10469 0.79566,0.16751c1.17255,0.23032 2.19852,0.62815 3.11981,1.36099c0.18844,0.14657 -0.04188,0.37689 -0.20938,0.29314c-1.59131,-0.73284 -3.60139,-0.56533 -5.31833,-1.00504c-0.33501,0.16751 -0.69096,0.31407 -1.02598,0.46064c1.65413,0.23032 3.24544,0.67003 4.56456,1.46568c0.2722,0.16751 0.10469,0.64909 -0.20938,0.52346c-2.20187,-0.86496 -4.42217,-0.88088 -6.6609,-0.897c-0.14573,-0.00105 -0.29146,-0.00209 -0.43719,-0.00335c-1.04692,0.35595 -2.09383,0.69096 -3.16169,1.02598c0.58627,0 1.17255,0.02094 1.75882,0.02094c0.23597,0.00251 0.47048,0.00314 0.70332,0.00398c1.79127,0.00565 3.49168,0.0111 5.15941,0.77074c0.31407,0.12563 0.08375,0.64909 -0.23032,0.5444c-2.3966,-0.71358 -4.9404,-0.49205 -7.48126,-0.27094c-1.4102,0.1227 -2.81956,0.2454 -4.20232,0.20813c-0.46064,0.14657 -0.92129,0.2722 -1.38193,0.41877c2.70104,0.20938 5.42303,0.16751 8.12407,0.37689c0.39783,0.04188 0.39783,0.58627 0,0.62815c-2.27872,0.2165 -4.54215,0.19284 -6.7993,0.16939c-1.45521,-0.01508 -2.90812,-0.03015 -4.36083,0.01905c-0.14657,0.12563 -0.31407,0.25126 -0.46064,0.37689c2.13571,-0.20331 4.32607,-0.13233 6.41613,-0.0647c0.49184,0.01612 0.97803,0.03183 1.45668,0.04376c0.41877,0.02094 0.41877,0.62815 0,0.64909c-3.37107,0.14657 -6.61651,0.48158 -9.90383,0.92129c-0.5444,0.37689 -1.06785,0.75378 -1.61225,1.13067c0.37689,0 0.75378,0 1.10973,-0.02094c1.01216,-0.03287 2.01448,-0.15955 3.01491,-0.28602c1.54504,-0.19535 3.08526,-0.38987 4.64852,-0.23744c0.4397,0.04188 0.46064,0.69096 0,0.7119c-2.21946,0.14657 -4.35517,0.75378 -6.57463,0.92129c-1.57037,0.12563 -3.057,0.20938 -4.56456,0.46064c-0.62815,0.39783 -1.27724,0.77472 -1.92633,1.15161c0.9841,-0.08375 1.94726,-0.18844 2.93137,-0.25126c0.5779,-0.04167 1.15768,-0.10469 1.73788,-0.16772c2.04756,-0.22257 4.09805,-0.44536 6.07211,0.27241c0.29314,0.10469 0.29314,0.64909 -0.08375,0.60721c-2.09718,-0.22404 -4.15751,0.0291 -6.21868,0.28246c-0.63464,0.07789 -1.26949,0.15599 -1.90539,0.22006c-1.9682,0.20938 -4.0411,0.69096 -6.07211,0.90035c-2.5126,1.19348 -5.04614,2.17759 -7.5378,2.80574c-1.06785,0.2722 -2.13571,-1.17255 -1.17255,-1.9682c3.09887,-2.55448 6.57463,-4.50174 9.94571,-6.63745c2.01008,-1.2563 3.91547,-2.63823 5.82085,-4.02016c5.44396,-5.52772 12.77238,-9.27568 18.94918,-13.86117c6.47497,-4.80137 11.35004,-11.04978 16.36266,-17.21423l-55.91515,19.81058c2.63823,-1.75882 41.60444,-16.29001 44.70332,-17.3788c0.31219,-0.10846 0.64176,-0.22467 0.98536,-0.34569c3.12798,-1.1024 7.43855,-2.62148 10.65614,-2.61373c2.49962,-3.06558 5.04551,-6.09933 7.85208,-8.91261c1.08879,-1.08879 2.70104,-0.50252 3.20356,0.81659c3.78984,9.82008 11.09731,16.87628 16.64596,25.60756l0.12563,0.18844c5.00426,-0.96316 8.45908,-8.29158 11.68359,-11.57889c0.87941,-0.90035 2.74292,-0.85847 3.32919,0.39783c3.69436,7.79722 8.81524,1.7628 11.94197,-1.92172c0.24016,-0.28309 0.46881,-0.55235 0.68385,-0.80026c0.90621,-1.0444 1.8231,-2.05656 2.77119,-3.03396l-5.32566,-2.91252c1.70522,-0.04167 4.00948,1.61058 5.3332,2.90477c1.2988,-1.33838 2.65645,-2.61143 4.12548,-3.81119c-2.88237,-0.28979 -5.79719,-0.85742 -7.57423,-1.62712l8.33576,1.01258c5.59326,-4.47264 11.24556,-8.19777 11.95348,-16.0463c0.12563,-1.50756 1.65413,-2.68011 3.11981,-1.82163c5.84179,3.39201 7.51686,10.4901 10.90887,15.89219c0.91731,1.46757 1.85681,3.01323 2.84908,4.54215c0.64176,0.05486 1.29127,0.12772 1.9458,0.21085l-1.90937,-0.15473c1.71631,2.64011 3.59155,5.22746 5.78296,7.27377c3.057,2.84761 7.03528,4.37611 10.23884,7.07715c5.82085,4.89957 7.7053,12.2908 14.15431,16.47845zM150.25344,102.29021l8.89879,0.7119c-2.28332,0.17169 -4.77792,-0.16332 -7.26434,-0.49749c-0.54586,-0.07328 -1.09151,-0.14657 -1.63445,-0.21441zM43.82397,82.02191c-1.27724,-0.02094 -3.74796,-0.25126 -6.65839,-0.5444zM119.4113,83.84355l5.86273,-1.38193c-1.37565,-0.02827 -2.67445,0.39469 -3.98121,0.82036c-0.62229,0.20289 -1.24646,0.4062 -1.88152,0.56157zM54.75062,83.72001l-5.7549,-1.00713c1.9525,0.04104 3.84428,0.6673 5.7549,1.00713zM74.85456,85.81175l-14.13337,-1.71694c3.64327,-0.4397 10.82511,0.2722 14.13337,1.71694zM116.64744,85.22548l-5.86273,1.71694c1.17255,-1.23536 4.02016,-1.71694 5.86273,-1.71694zM167.2763,86.54459l15.85031,-1.02598c-3.2668,1.24813 -7.76979,1.14679 -11.78953,1.05634c-1.44265,-0.03245 -2.82249,-0.06344 -4.06078,-0.03036zM142.50627,89.87378l20.51955,-2.93137c-1.06785,1.77976 -17.94414,2.93137 -20.51955,2.93137zM135.13137,90.54716c0.45939,-0.04188 0.94976,-0.05339 1.44747,-0.05025c-0.55905,-1.08649 -1.17129,-2.13403 -1.88256,-3.07291c-0.02094,0.04188 -0.02094,0.08375 -0.04188,0.12563c0.05591,0.99541 0.23723,1.99668 0.47698,2.99753zM111.83163,92.61671l15.85031,-1.02598c-3.2668,1.24813 -7.76958,1.14679 -11.78953,1.05634c-1.44244,-0.03245 -2.82249,-0.06344 -4.06078,-0.03036zM74.16359,91.67448l-15.85031,1.02598c3.27119,-1.23452 7.78194,-1.13842 11.80587,-1.05278h0.00063c1.43637,0.03057 2.81034,0.05988 4.04382,0.0268zM46.58783,93.72644l5.86273,-0.33501c-1.13528,0.51006 -2.95565,0.43824 -4.58759,0.37396c-0.44494,-0.01738 -0.87585,-0.03455 -1.27514,-0.03895zM43.46802,94.4174l-33.37568,4.77394c1.06785,-1.77976 30.82121,-4.77394 33.37568,-4.77394zM65.36866,100.75501c-0.0536,-0.52115 -0.11014,-1.04252 -0.16667,-1.56367c0.24393,0.47677 0.49373,0.95353 0.74624,1.42716zM65.66263,104.40498c0.4397,-0.79566 0.79566,-1.61225 0.96316,-2.53354c-0.22425,-0.40955 -0.44871,-0.82371 -0.67086,-1.24039c-0.19431,0.05444 -0.38799,0.11223 -0.58125,0.17169c0.12333,1.20081 0.23116,2.40142 0.28895,3.60223zM65.537,109.70238c1.00504,-1.82163 1.98914,-3.70608 2.17759,-5.77898c0,-0.02094 0.02094,-0.04188 0.04188,-0.06281c-0.29314,-0.52346 -0.60721,-1.02598 -0.90035,-1.54944c-0.18844,1.15161 -0.62815,2.2404 -1.15161,3.28732c0.02094,0.62815 0,1.27724 -0.02094,1.92633c-0.02094,0.73284 -0.08375,1.46568 -0.14657,2.17759zM164.36587,103.44182c1.2563,0 4.02016,0.25126 7.32841,0.58627zM171.69429,104.02809l20.03797,1.63319c-2.343,0.17881 -9.99198,-0.60533 -16.71422,-1.29441c-1.14491,-0.11746 -2.26322,-0.23221 -3.32375,-0.33878zM98.45204,116.277c-0.18844,-0.18844 -0.35595,-0.35595 -0.52346,-0.5444c-0.12563,0.56533 -0.23032,1.13067 -0.31407,1.696c0.29314,-0.37689 0.58627,-0.75378 0.83753,-1.15161zM97.50982,118.26614c-0.02094,0.23032 -0.02094,0.48158 -0.02094,0.7119c0.62815,-0.62815 1.2563,-1.2563 1.8007,-1.94726c-0.18844,-0.14657 -0.37689,-0.29314 -0.56533,-0.46064c-0.35595,0.58627 -0.77472,1.15161 -1.21442,1.696zM187.25145,153.14939c0.2722,0.25126 0.35595,0.37689 0.58627,0.75378c0.08375,0.12563 0.12563,0.2722 0.10469,0.41877c0.35595,0.56533 0,1.38193 -0.75378,1.42381c-1.82875,0.11432 -3.59113,0.57936 -5.3489,1.04315c-2.42864,0.64092 -4.84848,1.27933 -7.42347,0.98787c-0.78393,-0.08501 -1.54483,-0.2142 -2.29714,-0.34192c-1.84006,-0.3124 -3.62882,-0.6158 -5.57567,-0.24435c-0.42568,0.0825 -0.84214,0.17232 -1.254,0.26089c-1.57414,0.33899 -3.07919,0.66312 -4.7553,0.51383c-0.81659,-0.08375 -1.27724,-0.9841 -0.69096,-1.61225c1.38193,-1.48662 3.35013,-1.98914 5.25552,-2.36603c1.73788,-0.33501 5.4649,-0.37689 6.23962,-2.28228c1.10031,-2.69351 -4.47264,-2.17926 -7.68478,-1.88277c-0.88318,0.08145 -1.58733,0.14657 -1.92591,0.12395c-1.36099,-0.08375 -1.75882,-0.85847 -2.38697,-1.98914c-0.90035,-1.61225 -1.54944,-3.41295 -2.74292,-4.85769c-0.83753,-1.00504 -1.82163,-1.86351 -2.68011,-2.84761c-1.08879,-1.27724 -1.696,-2.61729 -1.92633,-4.27142c-0.50252,-3.64327 -0.16751,-7.11903 -1.38193,-10.67855c-0.14657,-0.4397 0.25126,-1.06785 0.75378,-1.00504c0.58627,0.08375 0.7119,0.08375 1.10973,0.23032c-0.02094,-0.14657 -0.02094,-0.29314 -0.06281,-0.41877c-0.04188,-0.23032 0.2722,-0.31407 0.33501,-0.10469c0.06281,0.23032 0.08375,0.46064 0.12563,0.69096c0.18844,0.14657 0.23032,0.37689 0.12563,0.5444c0.18844,0.16751 0.39783,0.39783 0.58627,0.67003c0.02094,-0.75378 0.06281,-1.48662 0.14657,-2.19852c0.04188,-0.23032 0.35595,-0.25126 0.37689,0c0.08375,1.23536 0.25126,2.53354 0.35595,3.81078c0.29314,0.69096 0.5444,1.31911 0.67003,1.63319c0.00879,-0.22195 0.01801,-0.44431 0.02701,-0.66689c0.05674,-1.37334 0.1137,-2.75569 0.07768,-4.10705c0,-0.25126 0.37689,-0.25126 0.39783,0c0.23032,2.03102 0.35595,4.16673 0.29314,6.23962c0.14657,0.25126 0.31407,0.50252 0.46064,0.73284c0.03685,-0.52869 0.1026,-1.06995 0.16813,-1.60911c0.15767,-1.29713 0.31366,-2.58149 0.06219,-3.64641c-0.04188,-0.23032 0.2722,-0.31407 0.35595,-0.10469c0.50252,1.29818 0.4397,2.63823 0.35595,4.02016c-0.06281,0.96316 -0.04188,1.82163 0.04188,2.70104c0.18844,0.25126 0.39783,0.48158 0.60721,0.7119c0.02094,-2.05196 0.35595,-4.25048 0.48158,-4.96238c0.02094,-0.18844 0.33501,-0.18844 0.37689,0c0.16269,0.92191 0.13233,1.89638 0.10197,2.86688c-0.01654,0.52827 -0.03287,1.05529 -0.01822,1.57205c0,0.52346 0.02094,1.04692 0.08375,1.57037c0.5444,0.50252 1.13067,0.9841 1.75882,1.42381c-0.03685,-0.59109 -0.0425,-1.19516 -0.04816,-1.7986c-0.01047,-1.10638 -0.02073,-2.21025 -0.22404,-3.2266c-0.04188,-0.23032 0.2722,-0.31407 0.33501,-0.10469c0.58627,1.88445 0.73284,3.85265 1.02598,5.79992c0.37689,0.20938 0.77472,0.39783 1.17255,0.58627c-0.23032,-1.59131 -0.23032,-3.24544 -0.20938,-4.52268c0.02094,-0.25126 0.37689,-0.25126 0.39783,0c0.12563,1.46568 0.31407,2.93137 0.64909,4.35517c0.04188,0.23032 0.12563,0.4397 0.18844,0.64909c0.48158,0.20938 0.96316,0.41877 1.42381,0.64909c-0.31407,-1.15161 -0.60721,-2.28228 -0.77472,-3.45482c-0.04188,-0.23032 0.2722,-0.33501 0.35595,-0.10469c0.4397,1.08879 0.77472,2.21946 1.15161,3.32919c0.08375,0.23032 0.18844,0.48158 0.2722,0.7119c0.25126,0.12563 0.50252,0.29314 0.75378,0.41877c-0.18844,-0.79566 -0.29314,-1.57037 -0.37689,-2.2404c-0.04188,-0.25126 0.31407,-0.25126 0.39783,-0.06281c0.37689,0.94222 0.62815,1.90539 0.9841,2.84761c0.58627,0.31407 1.15161,0.62815 1.696,0.96316c-0.06281,-0.18844 -0.12563,-0.37689 -0.18844,-0.5444c-0.08375,-0.20938 0.25126,-0.35595 0.35595,-0.14657c0.18844,0.37689 0.35595,0.77472 0.52346,1.15161c1.06785,0.67003 2.11477,1.38193 3.14075,2.13571c1.59131,0.75378 3.11981,1.57037 4.50174,2.61729c1.44474,1.08879 2.63823,2.42885 3.99922,3.62233c1.36099,1.17255 2.82667,2.2404 4.27142,3.30826c0.2722,-0.04188 0.56533,0.08375 0.7119,0.31407zM94.9344,131.95981c0.5444,-0.87941 1.29818,-1.696 1.92633,-2.49166c0.60721,-0.75378 1.23536,-1.48662 1.94726,-2.15665c-0.64909,0.33501 -1.34005,0.60721 -2.01008,0.87941c-1.04692,1.02598 -2.09383,2.07289 -2.97324,3.24544c0.25126,0.12563 0.50252,0.25126 0.77472,0.37689c0.12563,0.04188 0.23032,0.10469 0.33501,0.14657zM93.02901,131.0804c0.31407,-0.79566 1.21442,-1.57037 1.88445,-2.13571c-1.02598,0.39783 -2.03102,0.85847 -2.9523,1.48662c0.33501,0.23032 0.69096,0.4397 1.06785,0.64909zM183.08473,153.17032v0.04188h0.06281c-0.02094,-0.02094 -0.04188,-0.02094 -0.06281,-0.04188z" fill-rule="evenodd"></path></g></svg>